<svg xmlns="http://www.w3.org/2000/svg" viewBox="0 0 339.75 384.76"><defs><style>.cls-1{fill:#c3bedd;}.cls-2{fill:#c9add3;}.cls-3{fill:#8fd5e5;}.cls-4{fill:#a2d1e1;}.cls-5{fill:#a4d6e5;}.cls-6{fill:#9ac6d1;}.cls-7{fill:#9fd3e0;}.cls-8{fill:#abdae2;}.cls-9{fill:#b5c7de;}.cls-10{fill:#b7c4dd;}.cls-11{fill:#cdbece;}.cls-12{fill:#c4bddc;}.cls-13{fill:#cbb9d7;}.cls-14{fill:#cac;}.cls-15{fill:#d4b1d3;}.cls-16{fill:#d1b4d6;}.cls-17{fill:#d5aacf;}.cls-18{opacity:0.66;font-size:198px;fill:#fff;font-family:BalooBhaijaan-Regular, Baloo Bhaijaan;}</style></defs><title>Asset 1</title><g id="Layer_2" data-name="Layer 2"><g id="Layer_1-2" data-name="Layer 1"><polygon class="cls-1" points="84.5 50.51 171.29 0 171.29 94.57 84.5 50.51"/><polygon class="cls-2" points="253.92 50.69 171.29 0 171.29 94.57 253.92 50.69"/><polygon class="cls-3" points="84.5 50.51 0 98.21 84.5 142.19 171.29 94.57 84.5 50.51"/><polygon class="cls-4" points="0 98.21 0 191.81 84.5 142.19 0 98.21"/><polygon class="cls-5" points="0 191.81 84.5 240.07 84.5 142.19 0 191.81"/><polygon class="cls-6" points="0 191.81 0 288.3 84.5 240.07 0 191.81"/><polygon class="cls-7" points="0 288.3 85.65 336.53 171.24 288.3 84.5 240.07 0 288.3"/><polygon class="cls-8" points="85.65 336.53 171.24 384.76 171.24 288.3 85.65 336.53"/><polygon class="cls-9" points="84.5 142.19 167.39 192.49 84.5 240.07 84.5 142.19"/><polygon class="cls-10" points="84.5 240.07 167.39 192.49 256.76 240.07 171.24 288.3 84.5 240.07"/><polygon class="cls-11" points="171.24 288.3 256.76 336.54 171.24 384.76 171.24 288.3"/><polygon class="cls-12" points="84.5 142.19 171.29 94.57 256.76 145.01 167.39 192.49 84.5 142.19"/><polygon class="cls-13" points="256.76 145.01 339.75 192.49 256.76 240.07 167.39 192.49 256.76 145.01"/><polygon class="cls-14" points="171.24 288.3 256.76 336.54 339.75 288.3 256.76 240.07 171.24 288.3"/><polygon class="cls-15" points="339.75 192.49 339.75 288.3 256.76 240.07 339.75 192.49"/><polygon class="cls-16" points="171.29 94.57 253.92 50.69 339.75 96.35 256.76 145.01 171.29 94.57"/><polygon class="cls-17" points="339.75 96.35 339.75 192.49 256.76 145.01 339.75 96.35"/><text class="cls-18" transform="translate(107.75 253.11)">R</text></g></g></svg>